<?xml version="1.0" encoding="utf-8"?>
<!-- Generator: Adobe Illustrator 16.0.0, SVG Export Plug-In . SVG Version: 6.00 Build 0)  -->
<!DOCTYPE svg PUBLIC "-//W3C//DTD SVG 1.1//EN" "http://www.w3.org/Graphics/SVG/1.1/DTD/svg11.dtd">
<svg version="1.1" id="Ebene_1" xmlns="http://www.w3.org/2000/svg" xmlns:xlink="http://www.w3.org/1999/xlink" x="0px" y="0px"
	 width="230.896px" height="121.621px" viewBox="0 0 230.896 121.621" enable-background="new 0 0 230.896 121.621"
	 xml:space="preserve">
<path fill="none" stroke="#000000" stroke-width="0.1" stroke-miterlimit="10" d="M120.589,17.396"/>
<path fill="none" stroke="#000000" stroke-width="0.1" stroke-miterlimit="10" d="M86.381,34.018"/>
<g opacity="0.5">
	<polygon fill="#585B60" points="144.229,64.69 145.917,64.69 145.917,29.241 144.229,28.061 	"/>
	<polygon fill="#585B60" points="126.195,15.441 126.195,64.69 127.883,64.69 127.883,16.622 	"/>
	<polygon fill="#585B60" points="122.588,12.917 122.588,64.69 124.275,64.69 124.275,14.098 	"/>
	<polygon fill="#585B60" points="129.802,17.965 129.802,64.69 131.489,64.69 131.489,19.146 	"/>
	<polygon fill="#585B60" points="133.408,20.488 133.408,64.69 135.096,64.69 135.096,21.669 	"/>
	<polygon fill="#585B60" points="140.623,25.537 140.623,64.69 142.311,64.69 142.311,26.718 	"/>
	<polygon fill="#585B60" points="137.016,23.013 137.016,64.69 138.703,64.69 138.703,24.193 	"/>
</g>
<path fill="none" d="M126.682,60.441"/>
<path fill="#9D1532" d="M119.908,63.604V11.099l-16.598,8.947v43.662c-0.641,0.012-1.281,0.022-1.92,0.035V21.081l-15.309,8.253
	v34.893c-17.381,0.741-33.931,2.113-49.271,4.027c24.683-1.887,51.387-2.921,79.271-2.921s54.59,1.034,79.273,2.921
	C172.477,65.4,146.918,63.747,119.908,63.604z M93.84,47.28c-0.399-0.658-1.022-1.597-1.866-2.818
	c-0.967-1.371-1.451-3.119-1.451-5.241c0-1.99,0.353-3.763,1.06-5.317c0.705-1.552,1.607-2.56,2.703-3.028
	c1.068-0.451,2.059-0.131,2.969,0.957l-0.896,3.365c-0.661-0.754-1.289-1.008-1.884-0.754c-0.458,0.194-0.821,0.607-1.097,1.241
	c-0.269,0.629-0.407,1.373-0.407,2.227c0,1.036,0.354,2.099,1.067,3.197c0.255,0.384,0.857,1.292,1.802,2.725
	c1.121,1.647,1.685,3.697,1.685,6.155c0,2.224-0.381,4.208-1.135,5.946c-0.756,1.745-1.732,2.869-2.935,3.379
	c-1.264,0.533-2.422,0.168-3.467-1.096l0.882-3.632c0.828,1.102,1.625,1.486,2.403,1.159c0.546-0.232,0.989-0.749,1.331-1.556
	c0.345-0.803,0.521-1.748,0.521-2.837C95.124,50.059,94.697,48.703,93.84,47.28z M106.942,24.887l2.535-1.172v16.421l4.14-1.112
	V21.8l2.535-1.172v38.923h-2.535V41.85l-4.14,1.11v16.591h-2.535V24.887z"/>
<path fill="none" stroke="#000000" stroke-width="0.1" stroke-miterlimit="10" d="M119.908,59.551"/>
<path fill="none" stroke="#000000" stroke-width="0.1" stroke-miterlimit="10" d="M86.185,59.551"/>
<g>
	<rect x="172.125" y="87.98" fill="#585B60" width="0.014" height="0.043"/>
	<path fill="#585B60" d="M45.902,84.9c-2.385,0.312-2.696,0.588-3.733,3.459c-0.762,2.215-2.871,8.75-5.706,18.436H35.39
		c-1.9-5.571-4.29-12.243-6.053-17.259h-0.066c-1.938,6.089-3.874,11.655-5.64,17.259H22.56c-1.834-6.261-3.771-12.348-5.674-18.506
		c-0.864-2.835-1.384-3.146-3.492-3.389v-0.967h8.405V84.9c-2.525,0.312-2.595,0.588-2.077,2.353
		c1.351,4.669,2.699,9.34,4.222,14.25h0.068c1.867-5.878,3.839-11.621,5.604-17.259h1.002c1.938,5.705,3.943,11.312,6.053,17.292
		h0.068c1.453-4.634,3.389-11.411,3.908-13.869c0.484-2.073,0.349-2.455-2.351-2.767v-0.967h7.606V84.9z"/>
	<path fill="#585B60" d="M73.862,94.896c0,7.47-5.22,12.036-11.548,12.036c-6.263,0-11.24-4.842-11.24-11.515
		c0-6.228,4.354-12.002,11.652-12.002C68.573,83.416,73.862,87.944,73.862,94.896z M54.599,94.447
		c0,6.499,3.562,11.241,8.438,11.241c3.877,0,7.299-3.215,7.299-9.855c0-7.299-3.807-11.173-8.372-11.173
		C58.128,84.66,54.599,87.944,54.599,94.447z"/>
	<path fill="#585B60" d="M104.87,84.9c-2.839,0.243-3.114,0.417-3.114,3.288v13.972c0,2.905,0.275,3.08,3.08,3.284v0.967h-9.267
		v-0.967c2.972-0.204,3.248-0.379,3.248-3.284v-6.882H87.023v6.882c0,2.869,0.275,3.08,3.113,3.284v0.967h-9.096v-0.967
		c2.767-0.204,3.041-0.379,3.041-3.284V88.188c0-2.907-0.274-3.08-3.111-3.288v-0.967h8.959V84.9
		c-2.631,0.208-2.906,0.417-2.906,3.288v5.604h11.794v-5.604c0-2.871-0.276-3.045-2.976-3.288v-0.967h9.028V84.9z"/>
	<path fill="#585B60" d="M136.249,84.9c-1.936,0.104-2.765,0.554-2.902,2.04c-0.14,1.073-0.21,2.631-0.21,5.848v13.937h-1.068
		l-14.732-18.123h-0.072v8.684c0,3.181,0.105,4.841,0.21,5.841c0.171,1.766,0.97,2.181,3.319,2.318v0.967h-8.197v-0.967
		c1.973-0.104,2.873-0.553,3.044-2.248c0.104-1.07,0.207-2.764,0.207-5.911v-7.61c0-2.523-0.071-2.695-0.692-3.494
		c-0.725-0.863-1.451-1.139-3.079-1.28v-0.967h5.083l14.463,17.361h0.102v-8.507c0-3.217-0.102-4.774-0.245-5.743
		c-0.171-1.591-0.967-2.04-3.388-2.145v-0.967h8.159V84.9z"/>
	<path fill="#585B60" d="M154.453,94.308c3.425,0.521,6.087,2.041,6.087,5.5c0,2.318-1.245,4.115-3.284,5.222
		c-1.764,0.972-4.048,1.382-6.777,1.382h-7.646v-0.967c2.974-0.204,3.183-0.415,3.183-3.284V88.188c0-2.871-0.138-3.08-2.903-3.288
		v-0.967h8.887c2.592,0,4.113,0.414,5.187,1.175c1.213,0.83,1.94,2.352,1.94,3.941c0,3.288-2.768,4.637-4.672,5.19V94.308z
		 M150.579,93.893c3.771,0,5.36-1.521,5.36-4.425c0-2.354-1.311-4.426-4.599-4.426c-0.829,0-1.623,0.135-1.937,0.343
		c-0.344,0.209-0.451,0.587-0.451,1.729v6.778H150.579z M148.953,102.091c0,2.49,0.624,3.149,2.873,3.149
		c2.803-0.039,5.324-1.456,5.324-5.085c0-3.531-2.418-5.088-6.639-5.088h-1.559V102.091z"/>
	<path fill="#585B60" d="M181.232,106.411v-0.967c2.18-0.277,2.492-0.553,2.038-1.901c-0.447-1.348-1.139-3.216-1.898-5.326h-7.366
		c-0.554,1.557-1.074,3.007-1.523,4.461c-0.726,2.181-0.449,2.523,2.182,2.767v0.967h-7.541v-0.967
		c2.215-0.311,2.694-0.517,3.873-3.596l7.16-18.123l1.071-0.31c2.145,5.911,4.462,12.519,6.675,18.536
		c1.071,2.976,1.559,3.288,3.806,3.492v0.967H181.232z M177.844,87.91h-0.07c-1.105,2.941-2.177,5.982-3.25,8.819h6.364
		L177.844,87.91z"/>
	<path fill="#585B60" d="M218.505,84.9c-2.075,0.142-2.868,0.588-3.007,2.04c-0.105,0.934-0.207,2.425-0.207,5.607v2.832
		c0,4.083-0.624,7.022-2.595,9.131c-1.625,1.66-3.943,2.389-6.226,2.389c-2.041,0-4.014-0.488-5.533-1.659
		c-2.073-1.593-3.044-4.15-3.044-8.233v-8.612c0-3.113-0.312-3.251-3.009-3.494v-0.967h8.922V84.9
		c-2.697,0.175-2.975,0.381-2.975,3.494v7.851c0,5.568,2.215,8.784,6.504,8.784c4.98,0,6.537-4.185,6.537-9.891v-2.591
		c0-3.183-0.105-4.638-0.244-5.712c-0.172-1.348-0.899-1.761-3.354-1.936v-0.967h8.23V84.9z"/>
</g>
</svg>
